PathFileType	4	(X/Y/Z)	/Users/visionmauri/Downloads/Videos/OAW11-top_Sports2D/OAW11-top_Sports2D_m_person00.trc
DataRate	CameraRate	NumFrames	NumMarkers	Units	OrigDataRate	OrigDataStartFrame	OrigNumFrames
30.0	30.0	6	22	m	30.0	812	2166
Frame#	Time	Hip			RHip			RKnee			RAnkle			RBigToe			RSmallToe			RHeel			LHip			LKnee			LAnkle			LBigToe			LSmallToe			LHeel			Neck			Head			Nose			RShoulder			RElbow			RWrist			LShoulder			LElbow			LWrist			
		X1	Y1	Z1	X2	Y2	Z2	X3	Y3	Z3	X4	Y4	Z4	X5	Y5	Z5	X6	Y6	Z6	X7	Y7	Z7	X8	Y8	Z8	X9	Y9	Z9	X10	Y10	Z10	X11	Y11	Z11	X12	Y12	Z12	X13	Y13	Z13	X14	Y14	Z14	X15	Y15	Z15	X16	Y16	Z16	X17	Y17	Z17	X18	Y18	Z18	X19	Y19	Z19	X20	Y20	Z20	X21	Y21	Z21	X22	Y22	Z22
812	27.07916859122402	1.3918459403145518	0.4966349249666944	0.0301	1.4462144092070106	0.5276713738873118	0.0301	1.5485473241650867	0.3336313246570912	0.129	1.638933551028536	0.1759898745450911	0.023	1.6517697259638553	0.13572096977886172	0.2179	1.6893092839708541	0.15951838151404016	0.1804	1.6595844095816634	0.13604667512546495	-0.0119	1.3388334048685457	0.4601000714378296	0.0301	1.4764943268407265	0.2562989418243746	0.129	1.6029000142249112	0.06056797135616702	0.023	1.6128355731536217	0.03805094270464037	0.2179	1.5873646603548883	0.006420441786055579	0.1804	1.6317248551961117	0.016398281781562864	-0.0119	1.2285090891949346	0.7510853203778572	0.0008	1.1639892690973093	0.8483387546867643	0.0655	1.1988884869327845	0.7734565974800667	0.1076	1.3370558916781503	0.7689527335249	-0.01275	1.4694932024053222	0.6464165623785243	0.0702	1.591551897244807	0.5343305260778787	0.1076	1.1600915000686713	0.6779216130343402	-0.01275	1.1878486549469753	0.5161925110525163	0.0702	1.2334991137088718	0.4064469642191763	0.1076
813	27.112517321016167	1.3936320784786727	0.5008302688458368	0.0301	1.4470980400957854	0.5318688891934866	0.0301	1.5476062545001772	0.3353221720418265	0.129	1.6394415906579562	0.17290773597026649	0.023	1.658006882307175	0.12917999015242998	0.2179	1.6935741139420175	0.15435646673069367	0.1804	1.6621740776489273	0.13027381176403507	-0.0119	1.341114833193854	0.4640220430636013	0.0301	1.4731282988586092	0.26211224866414734	0.129	1.595491277945203	0.07073693686059518	0.023	1.6138391885229808	0.03595901965326515	0.2179	1.5845092615227914	0.005142754370932085	0.1804	1.6255905907150698	0.024125592733368968	-0.0119	1.2325520339908222	0.7531811509909574	0.0008	1.1700815075489455	0.8490571611005558	0.0655	1.2061540677031721	0.7762143331207025	0.1076	1.340532670841644	0.7716764480644106	-0.01275	1.4713929705134543	0.6491610750477274	0.0702	1.5953066872907016	0.5375156780084595	0.1076	1.1642892341411366	0.6816875561204644	-0.01275	1.1917895839969335	0.5202259746971118	0.0702	1.2359372153827686	0.4103837875414536	0.1076
814	27.145866050808316	1.393927492942523	0.5068579585120754	0.0301	1.446645293836001	0.5372245902116651	0.0301	1.5474245799884345	0.33792949108489473	0.129	1.6382343049970856	0.17339258265731508	0.023	1.6641138327359928	0.12117180942432203	0.2179	1.6977446141017	0.1489326890768037	0.1804	1.664033744632858	0.12656803146796813	-0.0119	1.3423138388369982	0.469740403747468	0.0301	1.4689178186029432	0.26833611310453426	0.129	1.5833908295737484	0.08834472684598245	0.023	1.6171291676237802	0.028777878393318506	0.2179	1.582040359118617	0.002562364694601731	0.1804	1.615759978128906	0.039491554351471045	-0.0119	1.2362593736998317	0.7566699508976201	0.0008	1.174435809442207	0.8504901369290614	0.0655	1.2124421091812307	0.7813852003667638	0.1076	1.3434109885492624	0.7764111668685352	-0.01275	1.4719993137545824	0.6528708868552326	0.0702	1.5975339623427087	0.5420651304850287	0.1076	1.1668715619583845	0.6866981983599356	-0.01275	1.1958394455380215	0.5254381024448502	0.0702	1.2397883870548667	0.4126244975005237	0.1076
815	27.17921478060046	1.3933015811097458	0.5141792049093371	0.0301	1.4467296512219197	0.5427999663604615	0.0301	1.5482943584113356	0.3407546247193165	0.129	1.6365021267969038	0.17663912793834727	0.023	1.6671728843359293	0.11559640184719706	0.2179	1.7001893656100784	0.14475401088645215	0.1804	1.6643982591834408	0.12602159253459128	-0.0119	1.3428390944368576	0.47700695753733346	0.0301	1.4641429358414866	0.2738223559695815	0.129	1.5695742370535117	0.11009018565029774	0.023	1.6210241747283396	0.020640660798871963	0.2179	1.5812376124850496	0.0007753232024018842	0.1804	1.6031399060378353	0.062290547609187764	-0.0119	1.2388232676831263	0.7615872849526732	0.0008	1.1766435599498646	0.8531678728587044	0.0655	1.2145929334179797	0.7844979098856224	0.1076	1.3448221683183128	0.7821473409573839	-0.01275	1.4708190632452212	0.6585741529778935	0.0702	1.59691628962441	0.5487518170174795	0.1076	1.167573589465361	0.6928130846241678	-0.01275	1.2005758665350246	0.5311034039967476	0.0702	1.2446030847280312	0.41361752801250984	0.1076
816	27.21256351039261	1.3927022834432987	0.5211575578414873	0.0301	1.4473362889696937	0.5484843095720426	0.0301	1.549039811591645	0.343801201798474	0.129	1.6352001218509313	0.18029321053911435	0.023	1.668093742611448	0.11258304604619321	0.2179	1.7021470916496002	0.14112101199900584	0.1804	1.6641532734169053	0.12724570990376624	-0.0119	1.3430426007683458	0.4844534107501651	0.0301	1.4579691165473079	0.2798425931045512	0.129	1.55603814158134	0.13287947493436747	0.023	1.6233637227846074	0.019648901380973666	0.2179	1.5810232392399748	0.0032888439345242376	0.1804	1.5899076103911187	0.08964083793391393	-0.0119	1.2406125753421688	0.7662979101758616	0.0008	1.180243651192404	0.8563121866042133	0.0655	1.2155098128199304	0.7848964593381137	0.1076	1.3450691124408263	0.7876397356025	-0.01275	1.4701217650005458	0.6651442959971688	0.0702	1.5948532241372817	0.5556832823332236	0.1076	1.1680646764514917	0.699377680395622	-0.01275	1.2053748901374137	0.5370047047180484	0.0702	1.2493023805404762	0.41397056077816985	0.1076
817	27.245912240184758	1.392370663405678	0.5270045963491928	0.0301	1.4472974415892472	0.5544445731310332	0.0301	1.548654238977223	0.34728376990754595	0.129	1.6347241626830957	0.18239825745473381	0.023	1.6680691532701346	0.11149337583592758	0.2179	1.704329032303881	0.13768328692717458	0.1804	1.6644477388232735	0.12841278895620284	-0.0119	1.3426148059388674	0.49115905977983254	0.0301	1.4506609696581165	0.2872641292087316	0.129	1.5449230450280493	0.15290880681440128	0.023	1.6224944646941482	0.028303723250088873	0.2179	1.577921159070106	0.012143142593808331	0.1804	1.5785257265123254	0.11649496080167933	-0.0119	1.2425261021990912	0.7692842823303503	0.0008	1.1878350203803643	0.8565520179890145	0.0655	1.2193309536762833	0.7820159533770928	0.1076	1.3446218896790154	0.7916546666506521	-0.01275	1.4716523123360712	0.6708643476278969	0.0702	1.5936774808469858	0.5612271465301756	0.1076	1.1694449441977968	0.7051890212503948	-0.01275	1.2090475042470257	0.5428591013132779	0.0702	1.2536004794136337	0.4137902657992878	0.1076
